<?xml version="1.0" encoding="UTF-8" standalone="no"?>
<!-- Created with Inkscape (http://www.inkscape.org/) -->

<svg
   xmlns:dc="http://purl.org/dc/elements/1.1/"
   xmlns:cc="http://creativecommons.org/ns#"
   xmlns:rdf="http://www.w3.org/1999/02/22-rdf-syntax-ns#"
   xmlns:svg="http://www.w3.org/2000/svg"
   xmlns="http://www.w3.org/2000/svg"
   xmlns:sodipodi="http://sodipodi.sourceforge.net/DTD/sodipodi-0.dtd"
   xmlns:inkscape="http://www.inkscape.org/namespaces/inkscape"
   width="151.25058mm"
   height="27.238329mm"
   viewBox="0 0 151.25057 27.238328"
   version="1.1"
   id="svg8"
   inkscape:version="0.92.3 (2405546, 2018-03-11)"
   sodipodi:docname="logo-mitsui.svg">
  <defs
     id="defs2">
    <clipPath
       id="clipPath4661"
       clipPathUnits="userSpaceOnUse">
      <path
         inkscape:connector-curvature="0"
         id="path4659"
         d="M 0,413.858 H 651.969 V 0 H 0 Z" />
    </clipPath>
    <clipPath
       id="clipPath4671"
       clipPathUnits="userSpaceOnUse">
      <path
         inkscape:connector-curvature="0"
         id="path4669"
         d="M -108,64.4043 H 108 V -64.4043 h -216 z" />
    </clipPath>
    <clipPath
       id="clipPath4787"
       clipPathUnits="userSpaceOnUse">
      <path
         inkscape:connector-curvature="0"
         id="path4785"
         d="M -108,64.4043 H 108 V -64.4043 h -216 z" />
    </clipPath>
    <clipPath
       id="clipPath4903"
       clipPathUnits="userSpaceOnUse">
      <path
         inkscape:connector-curvature="0"
         id="path4901"
         d="M -108,64.4043 H 108 V -64.4043 h -216 z" />
    </clipPath>
    <clipPath
       id="clipPath5019"
       clipPathUnits="userSpaceOnUse">
      <path
         inkscape:connector-curvature="0"
         id="path5017"
         d="M -108,64.4043 H 108 V -64.4043 h -216 z" />
    </clipPath>
    <clipPath
       id="clipPath5135"
       clipPathUnits="userSpaceOnUse">
      <path
         inkscape:connector-curvature="0"
         id="path5133"
         d="M -108,64.4043 H 108 V -64.4043 h -216 z" />
    </clipPath>
    <clipPath
       id="clipPath5251"
       clipPathUnits="userSpaceOnUse">
      <path
         inkscape:connector-curvature="0"
         id="path5249"
         d="M -108,64.4043 H 108 V -64.4043 h -216 z" />
    </clipPath>
    <clipPath
       id="clipPath5367"
       clipPathUnits="userSpaceOnUse">
      <path
         inkscape:connector-curvature="0"
         id="path5365"
         d="M -108,64.4043 H 108 V -64.4043 h -216 z" />
    </clipPath>
    <clipPath
       id="clipPath5483"
       clipPathUnits="userSpaceOnUse">
      <path
         inkscape:connector-curvature="0"
         id="path5481"
         d="M -108,64.4043 H 108 V -64.4043 h -216 z" />
    </clipPath>
    <clipPath
       clipPathUnits="userSpaceOnUse"
       id="clipPath68881">
      <path
         d="M 73.939,243.296 H 184.14 v 66.983 H 73.939 Z"
         id="path68879"
         inkscape:connector-curvature="0" />
    </clipPath>
    <clipPath
       clipPathUnits="userSpaceOnUse"
       id="clipPath68867">
      <path
         d="M 73.939,243.296 H 184.14 v 66.983 H 73.939 Z"
         id="path68865"
         inkscape:connector-curvature="0" />
    </clipPath>
  </defs>
  <sodipodi:namedview
     id="base"
     pagecolor="#ffffff"
     bordercolor="#666666"
     borderopacity="1.0"
     inkscape:pageopacity="0.0"
     inkscape:pageshadow="2"
     inkscape:zoom="0.9899495"
     inkscape:cx="-35.803791"
     inkscape:cy="-188.35209"
     inkscape:document-units="mm"
     inkscape:current-layer="layer1"
     showgrid="false"
     fit-margin-top="0"
     fit-margin-left="0"
     fit-margin-right="0"
     fit-margin-bottom="0"
     inkscape:window-width="1600"
     inkscape:window-height="837"
     inkscape:window-x="1592"
     inkscape:window-y="-8"
     inkscape:window-maximized="1"
     showguides="true"
     inkscape:guide-bbox="true" />
  <metadata
     id="metadata5">
    <rdf:RDF>
      <cc:Work
         rdf:about="">
        <dc:format>image/svg+xml</dc:format>
        <dc:type
           rdf:resource="http://purl.org/dc/dcmitype/StillImage" />
        <dc:title></dc:title>
      </cc:Work>
    </rdf:RDF>
  </metadata>
  <g
     inkscape:label="Camada 1"
     inkscape:groupmode="layer"
     id="layer1"
     transform="translate(-31.089426,-109.42245)">
    <g
       id="g1059"
       transform="matrix(0.98887684,0,0,0.98887684,-1.6176782,-4.4536307)"
       style="fill:#000000;fill-opacity:1">
      <g
         id="text143"
         style="font-style:normal;font-variant:normal;font-weight:normal;font-stretch:normal;font-size:10.58333302px;line-height:1.25;font-family:'Segoe UI';-inkscape-font-specification:'Segoe UI';letter-spacing:0px;word-spacing:0px;fill:#000000;fill-opacity:1;stroke:none;stroke-width:0.26458332"
         aria-label="Mitsui Sumitomo Seguros">
        <path
           id="path994"
           style="font-style:normal;font-variant:normal;font-weight:600;font-stretch:normal;font-family:'Segoe UI';-inkscape-font-specification:'Segoe UI Semi-Bold';stroke-width:0.26458332;fill:#000000;fill-opacity:1"
           d="m 70.948668,127.7136 h -1.219564 v -4.79557 q 0,-0.58911 0.07235,-1.44178 h -0.02067 q -0.113689,0.48576 -0.201539,0.69764 l -2.211751,5.53971 h -0.847493 l -2.216919,-5.49837 q -0.09302,-0.24288 -0.196371,-0.73898 h -0.02067 q 0.04134,0.44442 0.04134,1.45211 v 4.78524 H 62.9905 v -7.4104 h 1.73116 l 1.948201,4.9351 q 0.222209,0.56844 0.289388,0.84749 h 0.02584 q 0.191202,-0.58394 0.310058,-0.86816 l 1.984375,-4.91443 h 1.669149 z"
           inkscape:connector-curvature="0" />
        <path
           id="path996"
           style="font-style:normal;font-variant:normal;font-weight:600;font-stretch:normal;font-family:'Segoe UI';-inkscape-font-specification:'Segoe UI Semi-Bold';stroke-width:0.26458332;fill:#000000;fill-opacity:1"
           d="m 73.237934,121.31089 q -0.294556,0 -0.506429,-0.1912 -0.206706,-0.19121 -0.206706,-0.48576 0,-0.29456 0.206706,-0.49093 0.211873,-0.19637 0.506429,-0.19637 0.304891,0 0.516764,0.19637 0.211873,0.19637 0.211873,0.49093 0,0.27905 -0.211873,0.48059 -0.211873,0.19637 -0.516764,0.19637 z m 0.594279,6.40271 H 72.63332 v -5.29167 h 1.198893 z"
           inkscape:connector-curvature="0" />
        <path
           id="path998"
           style="font-style:normal;font-variant:normal;font-weight:600;font-stretch:normal;font-family:'Segoe UI';-inkscape-font-specification:'Segoe UI Semi-Bold';stroke-width:0.26458332;fill:#000000;fill-opacity:1"
           d="m 78.193703,127.65676 q -0.3514,0.1757 -0.925008,0.1757 -1.539958,0 -1.539958,-1.47795 v -2.99207 h -0.883666 v -0.94051 h 0.883666 v -1.22473 l 1.198894,-0.34106 v 1.56579 h 1.266072 v 0.94051 h -1.266072 v 2.64584 q 0,0.47025 0.170532,0.67179 0.170532,0.20154 0.568441,0.20154 0.304891,0 0.527099,-0.1757 z"
           inkscape:connector-curvature="0" />
        <path
           id="path1000"
           style="font-style:normal;font-variant:normal;font-weight:600;font-stretch:normal;font-family:'Segoe UI';-inkscape-font-specification:'Segoe UI Semi-Bold';stroke-width:0.26458332;fill:#000000;fill-opacity:1"
           d="m 78.896503,127.54824 v -1.11105 q 0.671794,0.5116 1.483114,0.5116 1.085205,0 1.085205,-0.64079 0,-0.18087 -0.09302,-0.30489 -0.09302,-0.12919 -0.253214,-0.22738 -0.155029,-0.0982 -0.37207,-0.1757 -0.211874,-0.0775 -0.475424,-0.1757 -0.325561,-0.12919 -0.589111,-0.27388 -0.258382,-0.14469 -0.434082,-0.32556 -0.170532,-0.18604 -0.258382,-0.41858 -0.08785,-0.23255 -0.08785,-0.5426 0,-0.38241 0.180868,-0.6718 0.180867,-0.29455 0.485758,-0.49092 0.304891,-0.20154 0.692464,-0.29973 0.387573,-0.10335 0.800985,-0.10335 0.733805,0 1.312581,0.22221 v 1.04903 q -0.558105,-0.38241 -1.281575,-0.38241 -0.227377,0 -0.413412,0.0465 -0.180867,0.0465 -0.310058,0.12919 -0.129191,0.0827 -0.201538,0.20154 -0.07235,0.11369 -0.07235,0.25322 0,0.17053 0.07235,0.28939 0.07235,0.11885 0.211873,0.21187 0.144694,0.0879 0.341064,0.16536 0.201539,0.0724 0.459921,0.1602 0.341064,0.13953 0.609782,0.28422 0.273885,0.14469 0.465087,0.33073 0.191203,0.18087 0.294556,0.42375 0.103353,0.23771 0.103353,0.56844 0,0.40307 -0.186035,0.7028 -0.186035,0.29972 -0.496094,0.49609 -0.310059,0.19637 -0.718302,0.28939 -0.403076,0.0982 -0.852661,0.0982 -0.868164,0 -1.503785,-0.28938 z"
           inkscape:connector-curvature="0" />
        <path
           id="path1002"
           style="font-style:normal;font-variant:normal;font-weight:600;font-stretch:normal;font-family:'Segoe UI';-inkscape-font-specification:'Segoe UI Semi-Bold';stroke-width:0.26458332;fill:#000000;fill-opacity:1"
           d="M 88.410133,127.7136 H 87.21124 v -0.83716 h -0.02067 q -0.521932,0.96118 -1.622639,0.96118 -1.875855,0 -1.875855,-2.25309 v -3.1626 h 1.198893 v 3.03858 q 0,1.42627 1.100708,1.42627 0.532267,0 0.873332,-0.39274 0.346232,-0.39274 0.346232,-1.02836 v -3.04375 h 1.198893 z"
           inkscape:connector-curvature="0" />
        <path
           id="path1004"
           style="font-style:normal;font-variant:normal;font-weight:600;font-stretch:normal;font-family:'Segoe UI';-inkscape-font-specification:'Segoe UI Semi-Bold';stroke-width:0.26458332;fill:#000000;fill-opacity:1"
           d="m 90.580544,121.31089 q -0.294556,0 -0.506429,-0.1912 -0.206706,-0.19121 -0.206706,-0.48576 0,-0.29456 0.206706,-0.49093 0.211873,-0.19637 0.506429,-0.19637 0.304891,0 0.516764,0.19637 0.211874,0.19637 0.211874,0.49093 0,0.27905 -0.211874,0.48059 -0.211873,0.19637 -0.516764,0.19637 z m 0.594279,6.40271 H 89.97593 v -5.29167 h 1.198893 z"
           inkscape:connector-curvature="0" />
        <path
           id="path1006"
           style="font-style:normal;font-variant:normal;font-weight:600;font-stretch:normal;font-family:'Segoe UI';-inkscape-font-specification:'Segoe UI Semi-Bold';stroke-width:0.26458332;fill:#000000;fill-opacity:1"
           d="m 95.453632,127.41904 v -1.26607 q 0.170533,0.15503 0.403076,0.27905 0.237712,0.12403 0.501262,0.21188 0.26355,0.0827 0.527099,0.12919 0.26355,0.0465 0.485759,0.0465 0.775146,0 1.152384,-0.25838 0.382406,-0.25839 0.382406,-0.74931 0,-0.26355 -0.129191,-0.45476 -0.124024,-0.19637 -0.3514,-0.35656 -0.227376,-0.1602 -0.537435,-0.30489 -0.304891,-0.14987 -0.65629,-0.31006 -0.377238,-0.20154 -0.7028,-0.40825 -0.325561,-0.2067 -0.568441,-0.45475 -0.237711,-0.25321 -0.377238,-0.56844 -0.134358,-0.31523 -0.134358,-0.73897 0,-0.52193 0.232544,-0.90434 0.237711,-0.38757 0.620117,-0.63562 0.387573,-0.25321 0.878499,-0.37207 0.490926,-0.12402 1.002523,-0.12402 1.16272,0 1.694987,0.26355 v 1.21439 q -0.630453,-0.45475 -1.62264,-0.45475 -0.273885,0 -0.54777,0.0517 -0.268718,0.0517 -0.485759,0.17053 -0.211873,0.11885 -0.346232,0.30489 -0.134359,0.18603 -0.134359,0.44958 0,0.24805 0.103353,0.42892 0.103353,0.18087 0.299724,0.33073 0.201538,0.14986 0.485758,0.29455 0.289388,0.13953 0.666626,0.30489 0.387573,0.20154 0.728638,0.42375 0.346232,0.22221 0.604614,0.49093 0.26355,0.26871 0.413412,0.59944 0.15503,0.32557 0.15503,0.74414 0,0.56328 -0.227378,0.95085 -0.227376,0.38757 -0.614949,0.63045 -0.382406,0.24288 -0.883667,0.3514 -0.501261,0.10852 -1.059367,0.10852 -0.186035,0 -0.45992,-0.031 -0.268718,-0.0258 -0.552938,-0.0827 -0.28422,-0.0517 -0.537435,-0.1292 -0.253214,-0.0775 -0.408244,-0.1757 z"
           inkscape:connector-curvature="0" />
        <path
           id="path1008"
           style="font-style:normal;font-variant:normal;font-weight:600;font-stretch:normal;font-family:'Segoe UI';-inkscape-font-specification:'Segoe UI Semi-Bold';stroke-width:0.26458332;fill:#000000;fill-opacity:1"
           d="m 106.04213,127.7136 h -1.19889 v -0.83716 h -0.0207 q -0.52193,0.96118 -1.62264,0.96118 -1.87585,0 -1.87585,-2.25309 v -3.1626 h 1.19889 v 3.03858 q 0,1.42627 1.10071,1.42627 0.53226,0 0.87333,-0.39274 0.34623,-0.39274 0.34623,-1.02836 v -3.04375 h 1.19889 z"
           inkscape:connector-curvature="0" />
        <path
           id="path1010"
           style="font-style:normal;font-variant:normal;font-weight:600;font-stretch:normal;font-family:'Segoe UI';-inkscape-font-specification:'Segoe UI Semi-Bold';stroke-width:0.26458332;fill:#000000;fill-opacity:1"
           d="m 115.51959,127.7136 h -1.19889 v -2.88354 q 0,-0.832 -0.23772,-1.20407 -0.23254,-0.37207 -0.79064,-0.37207 -0.47026,0 -0.80099,0.47026 -0.32556,0.47026 -0.32556,1.12655 v 2.86287 h -1.20406 v -2.98173 q 0,-1.47795 -1.04387,-1.47795 -0.48575,0 -0.80098,0.44442 -0.31006,0.44442 -0.31006,1.15239 v 2.86287 h -1.19889 v -5.29167 h 1.19889 v 0.83716 h 0.0207 q 0.57361,-0.96118 1.66915,-0.96118 0.54777,0 0.95601,0.30489 0.41342,0.29972 0.56328,0.79065 0.58911,-1.09554 1.757,-1.09554 1.74666,0 1.74666,2.15491 z"
           inkscape:connector-curvature="0" />
        <path
           id="path1012"
           style="font-style:normal;font-variant:normal;font-weight:600;font-stretch:normal;font-family:'Segoe UI';-inkscape-font-specification:'Segoe UI Semi-Bold';stroke-width:0.26458332;fill:#000000;fill-opacity:1"
           d="m 117.59698,121.31089 q -0.29456,0 -0.50643,-0.1912 -0.20671,-0.19121 -0.20671,-0.48576 0,-0.29456 0.20671,-0.49093 0.21187,-0.19637 0.50643,-0.19637 0.30489,0 0.51676,0.19637 0.21188,0.19637 0.21188,0.49093 0,0.27905 -0.21188,0.48059 -0.21187,0.19637 -0.51676,0.19637 z m 0.59428,6.40271 h -1.19889 v -5.29167 h 1.19889 z"
           inkscape:connector-curvature="0" />
        <path
           id="path1014"
           style="font-style:normal;font-variant:normal;font-weight:600;font-stretch:normal;font-family:'Segoe UI';-inkscape-font-specification:'Segoe UI Semi-Bold';stroke-width:0.26458332;fill:#000000;fill-opacity:1"
           d="m 122.55275,127.65676 q -0.3514,0.1757 -0.92501,0.1757 -1.53995,0 -1.53995,-1.47795 v -2.99207 h -0.88367 v -0.94051 h 0.88367 v -1.22473 l 1.19889,-0.34106 v 1.56579 h 1.26607 v 0.94051 h -1.26607 v 2.64584 q 0,0.47025 0.17053,0.67179 0.17053,0.20154 0.56844,0.20154 0.30489,0 0.5271,-0.1757 z"
           inkscape:connector-curvature="0" />
        <path
           id="path1016"
           style="font-style:normal;font-variant:normal;font-weight:600;font-stretch:normal;font-family:'Segoe UI';-inkscape-font-specification:'Segoe UI Semi-Bold';stroke-width:0.26458332;fill:#000000;fill-opacity:1"
           d="m 125.87038,127.83762 q -1.22473,0 -1.95854,-0.73897 -0.72864,-0.74414 -0.72864,-1.96887 0,-1.33325 0.75965,-2.08256 0.76481,-0.74931 2.05672,-0.74931 1.24023,0 1.9327,0.72864 0.69246,0.72864 0.69246,2.02055 0,1.26607 -0.74931,2.03088 -0.74414,0.75964 -2.00504,0.75964 z m 0.0568,-4.5837 q -0.7028,0 -1.11104,0.49093 -0.40825,0.49093 -0.40825,1.35392 0,0.83199 0.41342,1.31258 0.41341,0.47543 1.10587,0.47543 0.70797,0 1.08521,-0.47026 0.3824,-0.47025 0.3824,-1.33842 0,-0.87333 -0.3824,-1.34875 -0.37724,-0.47543 -1.08521,-0.47543 z"
           inkscape:connector-curvature="0" />
        <path
           id="path1018"
           style="font-style:normal;font-variant:normal;font-weight:600;font-stretch:normal;font-family:'Segoe UI';-inkscape-font-specification:'Segoe UI Semi-Bold';stroke-width:0.26458332;fill:#000000;fill-opacity:1"
           d="m 137.76112,127.7136 h -1.19889 v -2.88354 q 0,-0.832 -0.23771,-1.20407 -0.23254,-0.37207 -0.79065,-0.37207 -0.47026,0 -0.80098,0.47026 -0.32557,0.47026 -0.32557,1.12655 v 2.86287 h -1.20406 v -2.98173 q 0,-1.47795 -1.04386,-1.47795 -0.48576,0 -0.80099,0.44442 -0.31005,0.44442 -0.31005,1.15239 v 2.86287 h -1.1989 v -5.29167 h 1.1989 v 0.83716 h 0.0207 q 0.57361,-0.96118 1.66915,-0.96118 0.54777,0 0.95601,0.30489 0.41341,0.29972 0.56327,0.79065 0.58911,-1.09554 1.757,-1.09554 1.74666,0 1.74666,2.15491 z"
           inkscape:connector-curvature="0" />
        <path
           id="path1020"
           style="font-style:normal;font-variant:normal;font-weight:600;font-stretch:normal;font-family:'Segoe UI';-inkscape-font-specification:'Segoe UI Semi-Bold';stroke-width:0.26458332;fill:#000000;fill-opacity:1"
           d="m 141.58001,127.83762 q -1.22473,0 -1.95854,-0.73897 -0.72863,-0.74414 -0.72863,-1.96887 0,-1.33325 0.75964,-2.08256 0.76481,-0.74931 2.05672,-0.74931 1.24024,0 1.9327,0.72864 0.69246,0.72864 0.69246,2.02055 0,1.26607 -0.7493,2.03088 -0.74414,0.75964 -2.00505,0.75964 z m 0.0568,-4.5837 q -0.70279,0 -1.11104,0.49093 -0.40824,0.49093 -0.40824,1.35392 0,0.83199 0.41341,1.31258 0.41341,0.47543 1.10587,0.47543 0.70797,0 1.08521,-0.47026 0.38241,-0.47025 0.38241,-1.33842 0,-0.87333 -0.38241,-1.34875 -0.37724,-0.47543 -1.08521,-0.47543 z"
           inkscape:connector-curvature="0" />
        <path
           id="path1022"
           style="font-style:normal;font-variant:normal;font-weight:600;font-stretch:normal;font-family:'Segoe UI';-inkscape-font-specification:'Segoe UI Semi-Bold';stroke-width:0.26458332;fill:#000000;fill-opacity:1"
           d="m 148.26694,127.41904 v -1.26607 q 0.17053,0.15503 0.40308,0.27905 0.23771,0.12403 0.50126,0.21188 0.26355,0.0827 0.5271,0.12919 0.26355,0.0465 0.48576,0.0465 0.77514,0 1.15238,-0.25838 0.38241,-0.25839 0.38241,-0.74931 0,-0.26355 -0.12919,-0.45476 -0.12403,-0.19637 -0.3514,-0.35656 -0.22738,-0.1602 -0.53744,-0.30489 -0.30489,-0.14987 -0.65629,-0.31006 -0.37724,-0.20154 -0.7028,-0.40825 -0.32556,-0.2067 -0.56844,-0.45475 -0.23771,-0.25321 -0.37724,-0.56844 -0.13436,-0.31523 -0.13436,-0.73897 0,-0.52193 0.23255,-0.90434 0.23771,-0.38757 0.62011,-0.63562 0.38758,-0.25321 0.8785,-0.37207 0.49093,-0.12402 1.00253,-0.12402 1.16272,0 1.69498,0.26355 v 1.21439 q -0.63045,-0.45475 -1.62264,-0.45475 -0.27388,0 -0.54777,0.0517 -0.26871,0.0517 -0.48576,0.17053 -0.21187,0.11885 -0.34623,0.30489 -0.13436,0.18603 -0.13436,0.44958 0,0.24805 0.10336,0.42892 0.10335,0.18087 0.29972,0.33073 0.20154,0.14986 0.48576,0.29455 0.28939,0.13953 0.66662,0.30489 0.38758,0.20154 0.72864,0.42375 0.34623,0.22221 0.60462,0.49093 0.26355,0.26871 0.41341,0.59944 0.15503,0.32557 0.15503,0.74414 0,0.56328 -0.22738,0.95085 -0.22738,0.38757 -0.61495,0.63045 -0.3824,0.24288 -0.88367,0.3514 -0.50126,0.10852 -1.05936,0.10852 -0.18604,0 -0.45992,-0.031 -0.26872,-0.0258 -0.55294,-0.0827 -0.28422,-0.0517 -0.53744,-0.1292 -0.25321,-0.0775 -0.40824,-0.1757 z"
           inkscape:connector-curvature="0" />
        <path
           id="path1024"
           style="font-style:normal;font-variant:normal;font-weight:600;font-stretch:normal;font-family:'Segoe UI';-inkscape-font-specification:'Segoe UI Semi-Bold';stroke-width:0.26458332;fill:#000000;fill-opacity:1"
           d="m 158.72108,125.39333 h -3.60701 q 0.0207,0.7338 0.44958,1.13171 0.43409,0.39791 1.18856,0.39791 0.84749,0 1.55546,-0.50643 v 0.96635 q -0.72347,0.45475 -1.91203,0.45475 -1.16788,0 -1.83451,-0.7183 -0.66146,-0.72347 -0.66146,-2.03088 0,-1.23507 0.72864,-2.01022 0.73381,-0.78031 1.81901,-0.78031 1.08521,0 1.67948,0.69763 0.59428,0.69763 0.59428,1.93787 z m -1.15755,-0.8475 q -0.005,-0.64595 -0.30489,-1.00252 -0.29972,-0.36173 -0.82682,-0.36173 -0.51677,0 -0.8785,0.37724 -0.35657,0.37723 -0.43925,0.98701 z"
           inkscape:connector-curvature="0" />
        <path
           id="path1026"
           style="font-style:normal;font-variant:normal;font-weight:600;font-stretch:normal;font-family:'Segoe UI';-inkscape-font-specification:'Segoe UI Semi-Bold';stroke-width:0.26458332;fill:#000000;fill-opacity:1"
           d="m 164.67938,127.28985 q 0,2.91455 -2.93006,2.91455 -1.03352,0 -1.8035,-0.34623 v -1.09554 q 0.86816,0.4961 1.64848,0.4961 1.88619,0 1.88619,-1.85519 v -0.57877 h -0.0207 q -0.59427,1.01285 -1.788,1.01285 -0.96635,0 -1.56063,-0.7028 -0.58911,-0.70796 -0.58911,-1.89652 0,-1.34876 0.63562,-2.14457 0.63562,-0.79582 1.74666,-0.79582 1.04904,0 1.55546,0.85783 h 0.0207 v -0.73381 h 1.19889 z m -1.18856,-1.99987 v -0.6873 q 0,-0.55811 -0.37207,-0.95085 -0.3669,-0.39791 -0.91984,-0.39791 -0.68213,0 -1.0697,0.50643 -0.38241,0.50126 -0.38241,1.4056 0,0.78032 0.3669,1.25057 0.37207,0.46509 0.98186,0.46509 0.62011,0 1.00769,-0.44442 0.38757,-0.44958 0.38757,-1.14721 z"
           inkscape:connector-curvature="0" />
        <path
           id="path1028"
           style="font-style:normal;font-variant:normal;font-weight:600;font-stretch:normal;font-family:'Segoe UI';-inkscape-font-specification:'Segoe UI Semi-Bold';stroke-width:0.26458332;fill:#000000;fill-opacity:1"
           d="m 170.86505,127.7136 h -1.1989 v -0.83716 h -0.0207 q -0.52193,0.96118 -1.62264,0.96118 -1.87585,0 -1.87585,-2.25309 v -3.1626 h 1.19889 v 3.03858 q 0,1.42627 1.10071,1.42627 0.53227,0 0.87333,-0.39274 0.34623,-0.39274 0.34623,-1.02836 v -3.04375 h 1.1989 z"
           inkscape:connector-curvature="0" />
        <path
           id="path1030"
           style="font-style:normal;font-variant:normal;font-weight:600;font-stretch:normal;font-family:'Segoe UI';-inkscape-font-specification:'Segoe UI Semi-Bold';stroke-width:0.26458332;fill:#000000;fill-opacity:1"
           d="m 175.50043,123.56398 q -0.21705,-0.17053 -0.62529,-0.17053 -0.53227,0 -0.88883,0.48059 -0.35657,0.48059 -0.35657,1.30742 v 2.53214 h -1.19889 v -5.29167 h 1.19889 v 1.09038 h 0.0207 q 0.1757,-0.55811 0.53743,-0.86817 0.36691,-0.31522 0.81649,-0.31522 0.32556,0 0.4961,0.0982 z"
           inkscape:connector-curvature="0" />
        <path
           id="path1032"
           style="font-style:normal;font-variant:normal;font-weight:600;font-stretch:normal;font-family:'Segoe UI';-inkscape-font-specification:'Segoe UI Semi-Bold';stroke-width:0.26458332;fill:#000000;fill-opacity:1"
           d="m 178.62168,127.83762 q -1.22473,0 -1.95853,-0.73897 -0.72864,-0.74414 -0.72864,-1.96887 0,-1.33325 0.75964,-2.08256 0.76481,-0.74931 2.05672,-0.74931 1.24024,0 1.9327,0.72864 0.69247,0.72864 0.69247,2.02055 0,1.26607 -0.74931,2.03088 -0.74414,0.75964 -2.00505,0.75964 z m 0.0568,-4.5837 q -0.7028,0 -1.11105,0.49093 -0.40824,0.49093 -0.40824,1.35392 0,0.83199 0.41341,1.31258 0.41341,0.47543 1.10588,0.47543 0.70796,0 1.0852,-0.47026 0.38241,-0.47025 0.38241,-1.33842 0,-0.87333 -0.38241,-1.34875 -0.37724,-0.47543 -1.0852,-0.47543 z"
           inkscape:connector-curvature="0" />
        <path
           id="path1034"
           style="font-style:normal;font-variant:normal;font-weight:600;font-stretch:normal;font-family:'Segoe UI';-inkscape-font-specification:'Segoe UI Semi-Bold';stroke-width:0.26458332;fill:#000000;fill-opacity:1"
           d="m 182.27004,127.54824 v -1.11105 q 0.67179,0.5116 1.48311,0.5116 1.08521,0 1.08521,-0.64079 0,-0.18087 -0.093,-0.30489 -0.093,-0.12919 -0.25321,-0.22738 -0.15503,-0.0982 -0.37208,-0.1757 -0.21187,-0.0775 -0.47542,-0.1757 -0.32556,-0.12919 -0.58911,-0.27388 -0.25838,-0.14469 -0.43408,-0.32556 -0.17053,-0.18604 -0.25838,-0.41858 -0.0879,-0.23255 -0.0879,-0.5426 0,-0.38241 0.18086,-0.6718 0.18087,-0.29455 0.48576,-0.49092 0.30489,-0.20154 0.69247,-0.29973 0.38757,-0.10335 0.80098,-0.10335 0.73381,0 1.31258,0.22221 v 1.04903 q -0.5581,-0.38241 -1.28157,-0.38241 -0.22738,0 -0.41341,0.0465 -0.18087,0.0465 -0.31006,0.12919 -0.12919,0.0827 -0.20154,0.20154 -0.0724,0.11369 -0.0724,0.25322 0,0.17053 0.0724,0.28939 0.0724,0.11885 0.21187,0.21187 0.1447,0.0879 0.34107,0.16536 0.20153,0.0724 0.45992,0.1602 0.34106,0.13953 0.60978,0.28422 0.27388,0.14469 0.46509,0.33073 0.1912,0.18087 0.29455,0.42375 0.10336,0.23771 0.10336,0.56844 0,0.40307 -0.18604,0.7028 -0.18604,0.29972 -0.49609,0.49609 -0.31006,0.19637 -0.71831,0.28939 -0.40307,0.0982 -0.85266,0.0982 -0.86816,0 -1.50378,-0.28938 z"
           inkscape:connector-curvature="0" />
      </g>
    </g>
    <path
       inkscape:connector-curvature="0"
       id="path68871"
       style="fill:#666666;fill-opacity:1;fill-rule:nonzero;stroke:none;stroke-width:0.4252077"
       d="m 150.80526,128.97206 v 1.24925 h 1.01539 v 0.23856 h -1.01539 v 1.2484 h 1.34368 v 0.2411 h -1.6341 v -3.21883 h 1.6341 v 0.24152 z m -20.4814,-0.24152 h -0.28999 v 3.21883 h 0.28999 z m 1.17358,3.21883 v -2.85016 l 0.008,-0.009 1.33429,2.85995 h 0.43244 v -3.21882 h -0.28361 v 2.81742 l -0.008,0.007 -1.32876,-2.82508 h -0.44475 v 3.21882 z m 13.61217,0 v -2.85016 l 0.008,-0.009 1.33556,2.85995 h 0.43882 v -3.21882 h -0.29085 v 2.81742 l -0.008,0.007 -1.32919,-2.82508 h -0.43713 v 3.21882 z m -9.24445,-2.40286 c 0,-0.46474 -0.14499,-0.87847 -0.81938,-0.87847 -0.53533,0 -0.89251,0.23257 -0.88698,0.78833 0.003,0.32188 0.0302,0.51406 0.66461,0.89593 0.47239,0.28573 0.76068,0.41159 0.76068,0.84911 0,0.36782 -0.17942,0.5698 -0.55998,0.5698 -0.5851,0 -0.61357,-0.36738 -0.61357,-0.72627 h -0.29894 c -0.0275,0.62761 0.25853,0.96822 0.89804,0.96822 0.5668,0 0.86446,-0.28277 0.86446,-0.85552 0,-0.62677 -0.40862,-0.71181 -0.81045,-0.99373 -0.37038,-0.26489 -0.61572,-0.27764 -0.61572,-0.7577 0,-0.37547 0.22197,-0.49622 0.57618,-0.49622 0.44137,0 0.53829,0.23726 0.54682,0.63652 z m 24.36142,-0.87847 c 0.98181,0 0.99032,0.80237 0.99032,1.67277 0,0.8721 -0.008,1.67488 -0.99032,1.67488 -0.97882,0 -0.98859,-0.80278 -0.98859,-1.67488 0,-0.8704 0.009,-1.67277 0.98859,-1.67277 m 0,3.10656 c 0.69183,0 0.6999,-0.57445 0.6999,-1.43379 0,-0.85681 -0.008,-1.43082 -0.6999,-1.43082 -0.68925,0 -0.69775,0.57401 -0.69775,1.43082 0,0.85934 0.008,1.43379 0.69775,1.43379 m -4.85713,-0.0961 c -0.15351,0.06 -0.36271,0.0961 -0.61273,0.0961 -0.70074,0 -0.69184,-0.61995 -0.69184,-1.43379 0,-0.81171 -0.008,-1.43082 0.69184,-1.43082 0.45922,0 0.64588,0.2194 0.64588,0.64503 h 0.28999 c 0.0132,-0.62335 -0.30869,-0.88698 -0.93587,-0.88698 -1.06047,0 -0.98267,1.04856 -0.98267,1.67277 0,0.6259 -0.0779,1.67488 0.98267,1.67488 0.30955,0 0.61273,-0.0451 0.90271,-0.13479 v -1.61196 h -0.95247 v 0.24153 h 0.66249 z m -16.97644,-2.94798 v 1.61028 h 4.5e-4 c -4.5e-4,0.85934 -0.008,1.4338 -0.69226,1.4338 -0.6901,0 -0.69902,-0.57446 -0.69902,-1.4338 v -1.61028 h -0.29044 v 1.61028 h -4.2e-4 c 0,0.87209 0.008,1.67487 0.98988,1.67487 0.97331,0 0.98139,-0.80278 0.98139,-1.67487 v -1.61028 z m 25.35941,0 v 1.61028 h 7.2e-4 c 0,0.85934 -0.008,1.4338 -0.6982,1.4338 -0.69009,0 -0.69862,-0.57446 -0.69862,-1.4338 v -1.61028 h -0.29084 v 1.61028 c 0,0.87209 0.008,1.67487 0.98946,1.67487 0.97331,0 0.98223,-0.80278 0.98223,-1.67487 v -1.61028 z m 3.04236,1.00478 c 0,0.17476 -0.0437,0.44943 -0.28788,0.71307 -0.23556,0.26194 -0.51536,0.29255 -0.81937,0.29255 h -0.50471 v 1.21183 h -0.29085 v -3.22095 h 0.79556 c 0.30401,0 0.58381,0.029 0.81937,0.29086 0.24408,0.26446 0.28788,0.53872 0.28788,0.71264 m -0.29085,0 c 0,-0.16541 -0.0455,-0.36739 -0.20283,-0.55107 -0.13138,-0.14967 -0.27979,-0.21644 -0.61357,-0.21644 h -0.50471 v 1.53586 h 0.50471 c 0.33378,0 0.48219,-0.0662 0.61357,-0.21982 0.15733,-0.1799 0.20283,-0.38143 0.20283,-0.54853 m -24.98352,2.21534 h -0.30869 l -0.4422,-1.22802 c -0.0408,-0.12075 -0.11609,-0.20154 -0.33594,-0.20919 -0.0558,0 -0.59527,7.2e-4 -0.59527,7.2e-4 v 1.43762 h -0.29128 v -3.22222 h 0.84659 c 0.64079,0 1.0392,0.34016 1.0392,0.89208 0,0.37844 -0.18708,0.65568 -0.51192,0.79429 0.0522,0.0578 0.0948,0.12629 0.12328,0.21175 z m -1.12679,-1.67876 c 0.27682,0 0.74878,-0.10246 0.74878,-0.64925 0,-0.54597 -0.47196,-0.64804 -0.74878,-0.64804 h -0.55531 v 1.29729 z m 18.13851,1.67876 h -0.30829 l -0.44135,-1.22802 c -0.0418,-0.12075 -0.11656,-0.20154 -0.33676,-0.20919 -0.0558,0 -0.59955,7.2e-4 -0.59955,7.2e-4 v 1.43762 h -0.28573 v -3.22222 h 0.84531 c 0.64164,0 1.04005,0.34016 1.04005,0.89208 0,0.37844 -0.18792,0.65568 -0.51236,0.79429 0.0531,0.0578 0.0952,0.12629 0.12415,0.21175 z m -1.12637,-1.67876 c 0.27682,0 0.75006,-0.10246 0.75006,-0.64925 0,-0.54597 -0.47324,-0.64804 -0.75006,-0.64804 h -0.55958 v 1.29729 z m -8.04451,0.8564 c -0.0575,0.40096 -0.2194,0.64632 -0.66757,0.64632 -0.68925,0 -0.69777,-0.57446 -0.69777,-1.4338 0,-0.85681 0.008,-1.43084 0.69777,-1.43084 0.44689,0 0.60846,0.2394 0.66757,0.64249 h 0.28533 c -0.0678,-0.51023 -0.28449,-0.88441 -0.9529,-0.88441 -0.97967,0 -0.98904,0.80235 -0.98904,1.67276 0,0.87209 0.009,1.67487 0.98904,1.67487 0.67013,0 0.88656,-0.37587 0.95501,-0.88739 z m -6.06473,-2.39776 0.87849,3.21883 h -0.29978 l -0.23726,-0.86572 h -1.09067 l -0.23557,0.86572 h -0.30062 l 0.87211,-3.21883 z m 0.27595,2.11033 -0.48304,-1.76675 -0.47834,1.76675 z" />
    <path
       d="m 100.63437,134.48694 h 27.73838 v -9.28473 h -27.73838 z"
       style="fill:#666666;fill-opacity:1;fill-rule:nonzero;stroke:none;stroke-width:0.25579172"
       id="path68873"
       inkscape:connector-curvature="0" />
    <path
       inkscape:connector-curvature="0"
       id="path68885"
       style="fill:#ffffff;fill-opacity:1;fill-rule:nonzero;stroke:none;stroke-width:0.25579172;stroke-opacity:1"
       d="m 105.67542,131.15398 h -0.0139 l -1.26361,-3.47213 h -1.52829 v 0.0139 c 0.37779,0.14657 0.60008,0.44329 0.60008,0.93364 v 3.38157 h 0.44174 v -3.78931 h 0.0143 l 1.37771,3.78931 h 0.50571 l 1.36261,-3.82869 h 0.013 v 3.82869 h 0.83721 v -4.32902 h -1.11143 z m 4.21342,-2.62929 c 0,-0.43612 0.38548,-0.60826 0.73155,-0.61671 0.49601,-0.0115 1.00912,0.19925 1.34243,0.37499 v -0.52514 c -0.15145,-0.0328 -0.7037,-0.16932 -1.24982,-0.16932 -0.97559,0 -1.58386,0.40568 -1.60868,1.12292 -0.049,1.4506 2.32081,1.3544 2.32081,2.32668 0,0.46861 -0.3448,0.72848 -0.89144,0.72848 -0.50007,0 -1.01013,-0.22612 -1.36491,-0.46782 v 0.58958 c 0.15143,0.079 0.69934,0.21614 1.25058,0.21614 0.98453,0 1.81357,-0.31564 1.79463,-1.28228 -0.0272,-1.40123 -2.32515,-1.29839 -2.32515,-2.29752 m 6.43397,2.49321 c 0.0926,-0.19569 0.27266,-0.5566 0.46527,-1.0636 h -0.44787 c 0,0 -0.16501,0.40085 -0.32232,0.75742 -0.40339,-0.41056 -0.78759,-0.80832 -1.05618,-1.08942 0.42515,-0.24839 1.06591,-0.52822 1.06591,-1.17101 0,-0.39776 -0.35224,-0.85921 -1.1324,-0.83951 -0.58575,0.0169 -1.00067,0.42511 -1.03188,0.90217 -0.0257,0.37959 0.1545,0.63438 0.37705,0.86662 0.0399,0.0425 0.11226,0.11614 0.20386,0.21206 -0.64792,0.37268 -1.03315,0.80395 -1.05054,1.34776 -0.022,0.64128 0.49419,1.16947 1.38537,1.16947 0.60315,0 1.05567,-0.27471 1.3639,-0.75304 0.36271,0.37576 0.62874,0.65456 0.62874,0.65456 h 0.54995 c -0.27267,-0.26294 -0.62977,-0.62028 -0.99886,-0.99348 m -2.07117,-2.52723 c 0.0159,-0.34788 0.26501,-0.61901 0.67428,-0.62336 0.39341,-0.006 0.6978,0.24913 0.6978,0.62336 0,0.44508 -0.31795,0.65739 -0.85358,0.93031 -0.0294,-0.0311 -0.0551,-0.0602 -0.0775,-0.084 -0.29085,-0.3131 -0.45635,-0.51106 -0.441,-0.84615 m 1.57492,2.63286 c -0.23507,0.44917 -0.46349,0.72796 -1.01651,0.72796 -0.62209,0 -1.01576,-0.4044 -0.99274,-0.973 0.0202,-0.51901 0.43664,-0.828 0.83414,-1.06999 0.3333,0.34455 0.79475,0.82825 1.20607,1.25235 -0.0104,0.0228 -0.0215,0.0443 -0.0309,0.0627 m 8.0976,-3.44015 v 0 h -1.85731 v 0.013 c 0.37397,0.14683 0.5955,0.4438 0.5955,0.93416 v 3.38155 h 1.26181 c 1.3562,0 2.35382,-0.34557 2.35382,-2.16451 0,-1.82123 -1.00196,-2.16423 -2.35382,-2.16423 m 0.0711,3.99775 h -0.57553 v -3.6701 h 0.57553 c 1.13749,0 1.45495,0.68784 1.45495,1.83658 0,1.1475 -0.31746,1.83352 -1.45495,1.83352 m -5.28108,-3.99775 v 0.013 c 0.32152,0.12278 0.60291,0.41847 0.49623,0.70547 -0.0981,0.2632 -1.46875,3.60999 -1.46875,3.60999 h 0.45301 l 0.52335,-1.31502 h 1.85883 l 0.55225,1.31502 h 0.82724 l -1.86908,-4.32852 z m 0.14067,2.66764 0.76252,-1.92458 0.81394,1.92458 z" />
    <g
       id="text955"
       style="font-style:normal;font-variant:normal;font-weight:normal;font-stretch:normal;font-size:5.62753773px;line-height:1.25;font-family:'Segoe UI';-inkscape-font-specification:'Segoe UI';letter-spacing:0px;word-spacing:0px;fill:#000000;fill-opacity:1;stroke:none;stroke-width:0.14068843"
       aria-label="A Member of"
       transform="matrix(1.1410141,0,0,1.1410141,-45.191424,-27.850011)">
      <path
         id="path975"
         style="stroke-width:0.14068843"
         d="m 96.185202,140.0937 h -0.511095 l -0.417668,-1.10462 h -1.670676 l -0.392938,1.10462 h -0.513843 l 1.511302,-3.94037 h 0.478121 z m -1.079894,-1.51954 -0.618259,-1.67892 q -0.03023,-0.0824 -0.06045,-0.26379 h -0.01099 q -0.02748,0.16762 -0.0632,0.26379 l -0.612764,1.67892 z"
         inkscape:connector-curvature="0" />
      <path
         id="path977"
         style="stroke-width:0.14068843"
         d="m 102.31834,140.0937 h -0.45889 v -2.6434 q 0,-0.31325 0.0385,-0.76664 h -0.011 q -0.066,0.26654 -0.11816,0.38195 l -1.34643,3.02809 h -0.22532 l -1.343684,-3.00611 q -0.0577,-0.1319 -0.118156,-0.40393 h -0.01099 q 0.02198,0.23631 0.02198,0.77214 v 2.6379 h -0.445147 v -3.94037 h 0.610017 l 1.20904,2.74782 q 0.14014,0.316 0.18136,0.47263 h 0.0165 q 0.11816,-0.32425 0.1896,-0.48362 l 1.23378,-2.73683 h 0.57704 z"
         inkscape:connector-curvature="0" />
      <path
         id="path979"
         style="stroke-width:0.14068843"
         d="m 105.55802,138.79948 h -1.98668 q 0.011,0.46988 0.2528,0.72543 0.24181,0.25554 0.66498,0.25554 0.47537,0 0.8738,-0.31325 v 0.42317 q -0.37095,0.26928 -0.98097,0.26928 -0.59627,0 -0.937,-0.38195 -0.34073,-0.38469 -0.34073,-1.07989 0,-0.65673 0.37095,-1.0689 0.3737,-0.41492 0.92602,-0.41492 0.55231,0 0.85457,0.35721 0.30226,0.35722 0.30226,0.99197 z m -0.46163,-0.38195 q -0.003,-0.39019 -0.1896,-0.60727 -0.18411,-0.21707 -0.51385,-0.21707 -0.31874,0 -0.54132,0.22807 -0.22257,0.22807 -0.27478,0.59627 z"
         inkscape:connector-curvature="0" />
      <path
         id="path981"
         style="stroke-width:0.14068843"
         d="m 110.23756,140.0937 h -0.45064 v -1.61571 q 0,-0.46713 -0.14564,-0.67597 -0.14288,-0.20883 -0.48361,-0.20883 -0.28853,0 -0.49186,0.26379 -0.2006,0.26379 -0.2006,0.632 v 1.60472 h -0.45064 v -1.67067 q 0,-0.82984 -0.64024,-0.82984 -0.29677,0 -0.48911,0.25005 -0.19235,0.2473 -0.19235,0.64574 v 1.60472 h -0.45064 v -2.81376 h 0.45064 v 0.44514 h 0.011 q 0.29951,-0.51109 0.87381,-0.51109 0.28852,0 0.50285,0.16212 0.21433,0.15937 0.29402,0.42042 0.31325,-0.58254 0.93426,-0.58254 0.92876,0 0.92876,1.14584 z"
         inkscape:connector-curvature="0" />
      <path
         id="path983"
         style="stroke-width:0.14068843"
         d="m 111.55102,139.68703 h -0.011 v 0.40667 h -0.45065 v -4.16569 h 0.45065 v 1.84653 h 0.011 q 0.33248,-0.56055 0.97273,-0.56055 0.54132,0 0.84633,0.3792 0.30775,0.37645 0.30775,1.0112 0,0.70619 -0.34348,1.1321 -0.34347,0.42316 -0.93975,0.42316 -0.55781,0 -0.84358,-0.47262 z m -0.011,-1.13485 v 0.39293 q 0,0.34898 0.22532,0.59353 0.22807,0.24181 0.57704,0.24181 0.40943,0 0.64024,-0.31325 0.23357,-0.31325 0.23357,-0.87106 0,-0.46988 -0.21708,-0.73641 -0.21708,-0.26654 -0.58803,-0.26654 -0.39294,0 -0.632,0.27478 -0.23906,0.27203 -0.23906,0.68421 z"
         inkscape:connector-curvature="0" />
      <path
         id="path985"
         style="stroke-width:0.14068843"
         d="m 116.65922,138.79948 h -1.98668 q 0.011,0.46988 0.2528,0.72543 0.24181,0.25554 0.66497,0.25554 0.47538,0 0.87381,-0.31325 v 0.42317 q -0.37095,0.26928 -0.98097,0.26928 -0.59628,0 -0.93701,-0.38195 -0.34073,-0.38469 -0.34073,-1.07989 0,-0.65673 0.37096,-1.0689 0.3737,-0.41492 0.92601,-0.41492 0.55232,0 0.85458,0.35721 0.30226,0.35722 0.30226,0.99197 z m -0.46164,-0.38195 q -0.003,-0.39019 -0.1896,-0.60727 -0.1841,-0.21707 -0.51384,-0.21707 -0.31875,0 -0.54132,0.22807 -0.22257,0.22807 -0.27478,0.59627 z"
         inkscape:connector-curvature="0" />
      <path
         id="path987"
         style="stroke-width:0.14068843"
         d="m 118.81076,137.73607 q -0.11815,-0.0907 -0.34073,-0.0907 -0.28852,0 -0.48361,0.27203 -0.19235,0.27203 -0.19235,0.74191 v 1.43436 h -0.45064 v -2.81376 h 0.45064 v 0.57979 h 0.011 q 0.0962,-0.29677 0.29402,-0.46164 0.19784,-0.16762 0.4424,-0.16762 0.17586,0 0.26928,0.0385 z"
         inkscape:connector-curvature="0" />
      <path
         id="path989"
         style="stroke-width:0.14068843"
         d="m 122.01472,140.15965 q -0.62375,0 -0.99746,-0.39294 -0.37095,-0.39568 -0.37095,-1.04692 0,-0.70893 0.38744,-1.10737 0.38744,-0.39843 1.04692,-0.39843 0.62925,0 0.98097,0.38744 0.35447,0.38744 0.35447,1.0744 0,0.67321 -0.38195,1.07989 -0.3792,0.40393 -1.01944,0.40393 z m 0.033,-2.56646 q -0.43415,0 -0.68695,0.29676 -0.2528,0.29402 -0.2528,0.81336 0,0.5001 0.25555,0.78862 0.25554,0.28852 0.6842,0.28852 0.43691,0 0.67047,-0.28302 0.23632,-0.28303 0.23632,-0.80511 0,-0.52759 -0.23632,-0.81336 -0.23356,-0.28577 -0.67047,-0.28577 z"
         inkscape:connector-curvature="0" />
      <path
         id="path991"
         style="stroke-width:0.14068843"
         d="m 125.52644,136.32369 q -0.1319,-0.0742 -0.29952,-0.0742 -0.47262,0 -0.47262,0.59628 v 0.43416 h 0.65948 v 0.38469 h -0.65948 v 2.42907 h -0.4479 v -2.42907 h -0.48086 v -0.38469 h 0.48086 v -0.45614 q 0,-0.4424 0.25555,-0.69795 0.25555,-0.25829 0.6375,-0.25829 0.20608,0 0.32699,0.0495 z"
         inkscape:connector-curvature="0" />
    </g>
    <path
       style="clip-rule:evenodd;fill:#12559b;fill-rule:evenodd;stroke-width:0.25459087"
       inkscape:connector-curvature="0"
       id="path2005"
       d="m 32.264871,122.46264 c 1.134966,-1.39694 2.444582,-2.83741 4.103241,-4.40875 1.70245,-1.61512 3.186715,-2.88095 4.62719,-3.92884 1.571589,-1.2223 3.623083,-1.26608 5.150883,-0.0435 1.440475,1.09144 2.968275,2.35726 4.62719,3.97239 1.658914,1.57134 2.968275,3.01206 4.10324,4.40875 1.30987,1.61512 1.30987,3.36136 0,4.97649 -1.134965,1.35289 -2.444581,2.79362 -4.10324,4.40849 -1.70245,1.61564 -3.186715,2.83767 -4.62719,3.92885 -1.571589,1.17901 -3.579548,1.17901 -5.150883,0 -1.440475,-1.09093 -2.92474,-2.31321 -4.62719,-3.92885 -1.658914,-1.61512 -2.968275,-3.0556 -4.059705,-4.40849 -1.265827,-1.52806 -1.309362,-3.49222 -0.04353,-4.97649 z" />
    <path
       style="clip-rule:evenodd;fill:#e5272a;fill-rule:evenodd;stroke-width:0.25459087"
       inkscape:connector-curvature="0"
       id="path2007"
       d="m 31.129905,125.25653 c 0.131115,0.78566 0.480158,1.44047 1.091431,2.1826 1.134967,1.35289 2.488117,2.79362 4.147031,4.40849 1.70245,1.61564 3.186715,2.83768 4.62719,3.92885 0.654807,0.5242 1.440475,0.78618 2.182607,0.87325 -1.5278,-0.34905 -3.797732,-2.70656 -2.61923,-6.98444 1.134965,-4.05971 2.968275,-6.98445 3.885056,-8.81776 l 0.04353,-0.0435 c 1.83331,-3.49222 -0.785667,-4.67073 -2.837415,-2.92474 1.48401,-2.00795 4.801585,-5.282 5.93655,-6.50429 1.178756,-1.1785 0.349299,-2.40079 -1.964423,-1.78977 -4.714514,1.44047 -10.60753,5.84948 -13.35762,11.08769 -0.916528,1.74623 -1.309361,3.27404 -1.134712,4.58366 z" />
  </g>
</svg>
